<?xml version="1.0" standalone="no"?><!DOCTYPE svg PUBLIC "-//W3C//DTD SVG 1.1//EN" "http://www.w3.org/Graphics/SVG/1.1/DTD/svg11.dtd"><svg t="1585545327750" class="icon" viewBox="0 0 1024 1024" version="1.1" xmlns="http://www.w3.org/2000/svg" p-id="2304" xmlns:xlink="http://www.w3.org/1999/xlink" width="64" height="64"><defs><style type="text/css"></style></defs><path d="M294.62 562.173l180.116-188.444 174.09 182.167c1.341 2.08 2.213 4.433 3.993 6.278 14.277 14.945 37.38 14.945 51.621 0l200-209.249c2.184-1.478 4.3-3.208 6.212-5.207 14.577-15.264 14.577-40.016 0-55.296-14.607-15.265-38.285-15.265-52.86 0-1.077 1.157-1.546 2.653-2.487 3.896l-175.65 183.81L501.89 294.114c-0.452-0.521-0.607-1.193-1.076-1.697-14.592-15.265-38.255-15.265-52.862 0-1.077 1.16-1.528 2.653-2.452 3.898L242.998 508.205c-14.259 14.911-14.259 39.093 0 53.969 14.257 14.945 37.38 14.945 51.622-0.001z m632.524 245.274H128.775V183.72c0-18.136-14.29-32.828-31.923-32.828-17.649-0.001-31.94 14.692-31.94 32.828v656.573c0 18.138 14.291 32.811 31.94 32.811h830.295c17.631 0 31.938-14.674 31.938-32.811 0-18.135-14.309-32.847-31.941-32.847z" p-id="2305"></path></svg>