<?xml version="1.0" standalone="no"?><!DOCTYPE svg PUBLIC "-//W3C//DTD SVG 1.1//EN" "http://www.w3.org/Graphics/SVG/1.1/DTD/svg11.dtd"><svg t="1585724769369" class="icon" viewBox="0 0 1024 1024" version="1.1" xmlns="http://www.w3.org/2000/svg" p-id="2302" xmlns:xlink="http://www.w3.org/1999/xlink" width="64" height="64"><defs><style type="text/css"></style></defs><path d="M512 64v64C299.936 128 128 299.936 128 512s171.936 384 384 384c208.8 0 378.688-166.688 383.872-374.24L896 512h64c0 247.424-200.576 448-448 448S64 759.424 64 512C64 267.904 259.2 69.44 501.984 64.096L512 64z m380.8-3.2a32 32 0 0 1 31.776 28.256l0.192 3.712v224a32 32 0 0 1-63.776 3.744L860.8 316.8V176.224L438.624 598.432l-45.248-45.28L821.76 124.736 668.8 124.8a32 32 0 0 1-31.808-28.256L636.8 92.8a32 32 0 0 1 28.288-31.776l3.712-0.224h224z" p-id="2303"></path></svg>