<?xml version="1.0" standalone="no"?><!DOCTYPE svg PUBLIC "-//W3C//DTD SVG 1.1//EN" "http://www.w3.org/Graphics/SVG/1.1/DTD/svg11.dtd"><svg t="1585724899990" class="icon" viewBox="0 0 1025 1024" version="1.1" xmlns="http://www.w3.org/2000/svg" p-id="4716" xmlns:xlink="http://www.w3.org/1999/xlink" width="64.0625" height="64"><defs><style type="text/css"></style></defs><path d="M246.6288 259.328c0-105.76 87.488-193.312 193.248-193.312 105.76 0 193.312 87.552 193.312 193.312s-87.552 193.28-193.312 193.28c-105.792 0-193.248-87.52-193.248-193.28zM123.2368 947.232a57.216 57.216 0 0 1-57.984-58.016c0-193.28 149.536-353.056 338.784-371.232h39.84c43.712-3.424 105.664-14.784 138.112-43.776l14.816-10.816c61.984-51.136 98.304-123.904 98.304-204.064 0-142.112-116.608-258.688-262.048-258.688-134.752 0-251.264 116.576-251.264 258.688 0 80.16 36.352 152.928 98.336 204.064l18.176 10.816-18.144 7.392C112.4208 546.976-0.0912 707.264-0.0912 889.216a122.752 122.752 0 0 0 123.904 123.904h331.392c10.816 0 28.992-10.784 28.992-32.96 0-25.568-18.176-32.928-28.992-32.928H123.2368z m840.768-145.504c-54.56 7.36-94.944 51.04-94.944 109.056 0 10.816 3.424 25.6 7.392 33.024l-47.2 25.568-18.144-18.176c-21.664-14.816-39.808-21.568-61.984-21.568-18.272 0-39.808 7.328-61.984 21.568-7.392 7.328-14.784 10.816-18.24 18.176l-43.712-25.568c3.392-7.424 7.36-21.632 7.36-33.024a109.696 109.696 0 0 0-94.944-109.056c0-7.424-3.456-21.632-3.456-36.448 0-10.816 3.456-25.6 3.456-36.384 54.496-7.424 94.944-51.2 94.944-109.152 0-10.848-3.392-25.568-7.36-32.928l47.2-25.632c3.392 3.424 10.72 10.816 18.176 14.816 21.536 14.752 39.808 21.568 58.016 21.568 18.144 0 36.352-7.36 57.92-21.568 7.456-7.36 14.784-10.816 18.272-14.816l47.168 25.632c-3.392 7.36-7.456 21.6-7.456 32.928a109.824 109.824 0 0 0 95.04 109.152c0 7.36 3.392 21.6 3.392 36.384 5.152 10.784 1.088 25.568 1.088 36.448z m51.232-91.008c-3.488-18.24-18.272-32.992-32.992-32.992h-3.456c-32.896 0-57.92-25.6-57.92-57.984 0-7.392 3.392-18.24 3.392-21.6 7.328-18.176 0-39.84-14.816-51.168l-65.344-36.384h-18.24c-10.72 0-25.536 3.392-32.928 14.752-7.392 7.424-29.024 25.6-43.744 25.6-14.816 0-36.448-18.176-47.264-25.6-7.328-7.36-18.176-14.752-32.96-14.752-7.328 0-10.752 0-14.784 3.392l-69.312 36.384c-14.816 10.816-21.664 32.96-14.816 51.136 0 0 3.392 10.848 3.392 21.632a57.12 57.12 0 0 1-57.92 58.016h-3.488c-14.784 0-28.992 14.816-32.96 32.96 0 3.424-7.36 28.992-7.36 54.624 0 21.632 3.392 51.168 7.36 54.464 3.456 18.272 18.144 33.056 32.96 33.056h3.488c32.96 0 57.92 25.6 57.92 58.016 0 7.328-3.392 18.144-3.392 21.504-7.328 18.272 0 39.744 14.816 51.168l65.312 36.48c7.456-3.424 10.88-3.424 18.208-3.424 10.816 0 25.6-3.392 33.056-14.848 7.328-7.36 28.96-28.864 47.168-28.864 14.784 0 39.712 18.144 47.168 28.864 7.36 7.424 18.208 14.848 32.992 14.848 7.328 0 10.784 0 18.144-3.392l65.344-36.416c14.784-10.784 21.664-32.928 14.784-51.232 0 0-3.36-10.72-3.36-21.536 0-32.992 25.6-58.016 58.016-58.016h3.392c14.752 0 28.992-14.816 32.928-32.96 0 0 7.36-28.96 7.36-54.624-6.784-18.176-10.144-47.168-10.144-51.104z m-266.048 101.76c-25.6 0-47.264-21.632-47.264-47.2 0-25.6 21.664-47.2 47.264-47.2 25.536 0 47.168 21.6 47.168 47.2 0.512 25.568-21.664 47.2-47.168 47.2z m18.144-145.536c-69.376-14.816-131.328 47.168-116.576 119.936 7.424 39.776 39.84 72.736 80.128 80.096 69.44 14.88 131.392-47.104 116.608-116.48-6.816-43.2-39.808-76.192-80.16-83.552z" p-id="4717"></path></svg>